<mxfile host="app.diagrams.net" modified="2023-10-05T18:40:02.125Z" agent="Mozilla/5.0 (Windows NT 10.0; Win64; x64) AppleWebKit/537.36 (KHTML, like Gecko) Chrome/117.0.0.0 Safari/537.36" etag="IFw8kOOKo8j4Djx7dpl3" version="21.7.5" type="google">
  <diagram id="K2KFXqN_oqqMAJZWlcvZ" name="Страница — 3">
    <mxGraphModel grid="1" page="1" gridSize="10" guides="1" tooltips="1" connect="1" arrows="1" fold="1" pageScale="1" pageWidth="827" pageHeight="1169" math="0" shadow="0">
      <root>
        <mxCell id="0" />
        <mxCell id="1" parent="0" />
        <mxCell id="xOHj4i3F1uHMTufk2OcQ-11" value="Кладовщик" style="text;html=1;strokeColor=none;fillColor=none;align=center;verticalAlign=middle;whiteSpace=wrap;rounded=0;" vertex="1" parent="1">
          <mxGeometry x="620" y="260" width="60" height="30" as="geometry" />
        </mxCell>
        <mxCell id="xOHj4i3F1uHMTufk2OcQ-27" value="" style="shape=umlLifeline;perimeter=lifelinePerimeter;whiteSpace=wrap;html=1;container=1;dropTarget=0;collapsible=0;recursiveResize=0;outlineConnect=0;portConstraint=eastwest;newEdgeStyle={&quot;curved&quot;:0,&quot;rounded&quot;:0};participant=umlActor;" vertex="1" parent="1">
          <mxGeometry x="120" y="220" width="20" height="420" as="geometry" />
        </mxCell>
        <mxCell id="xOHj4i3F1uHMTufk2OcQ-28" value="" style="html=1;points=[[0,0,0,0,5],[0,1,0,0,-5],[1,0,0,0,5],[1,1,0,0,-5]];perimeter=orthogonalPerimeter;outlineConnect=0;targetShapes=umlLifeline;portConstraint=eastwest;newEdgeStyle={&quot;curved&quot;:0,&quot;rounded&quot;:0};fillColor=#d5e8d4;strokeColor=#82b366;" vertex="1" parent="xOHj4i3F1uHMTufk2OcQ-27">
          <mxGeometry x="5" y="135" width="10" height="180" as="geometry" />
        </mxCell>
        <mxCell id="xOHj4i3F1uHMTufk2OcQ-29" value="Клиент" style="text;html=1;strokeColor=none;fillColor=none;align=center;verticalAlign=middle;whiteSpace=wrap;rounded=0;" vertex="1" parent="1">
          <mxGeometry x="100" y="260" width="60" height="30" as="geometry" />
        </mxCell>
        <mxCell id="xOHj4i3F1uHMTufk2OcQ-39" value="Накладная" style="rounded=1;whiteSpace=wrap;html=1;" vertex="1" parent="1">
          <mxGeometry x="220" y="220" width="120" height="40" as="geometry" />
        </mxCell>
        <mxCell id="xOHj4i3F1uHMTufk2OcQ-42" value="" style="endArrow=none;dashed=1;html=1;rounded=0;entryX=0.5;entryY=1;entryDx=0;entryDy=0;" edge="1" parent="1" source="xOHj4i3F1uHMTufk2OcQ-44" target="xOHj4i3F1uHMTufk2OcQ-39">
          <mxGeometry width="50" height="50" relative="1" as="geometry">
            <mxPoint x="280" y="640" as="sourcePoint" />
            <mxPoint x="310" y="540" as="targetPoint" />
          </mxGeometry>
        </mxCell>
        <mxCell id="xOHj4i3F1uHMTufk2OcQ-13" value="" style="shape=umlDestroy;whiteSpace=wrap;html=1;strokeWidth=3;targetShapes=umlLifeline;" vertex="1" parent="1">
          <mxGeometry x="475" y="640" width="30" height="30" as="geometry" />
        </mxCell>
        <mxCell id="xOHj4i3F1uHMTufk2OcQ-45" value="" style="endArrow=none;dashed=1;html=1;rounded=0;entryX=0.5;entryY=1;entryDx=0;entryDy=0;" edge="1" parent="1" target="xOHj4i3F1uHMTufk2OcQ-44">
          <mxGeometry width="50" height="50" relative="1" as="geometry">
            <mxPoint x="280" y="640" as="sourcePoint" />
            <mxPoint x="280" y="260" as="targetPoint" />
          </mxGeometry>
        </mxCell>
        <mxCell id="xOHj4i3F1uHMTufk2OcQ-44" value="" style="html=1;points=[[0,0,0,0,5],[0,1,0,0,-5],[1,0,0,0,5],[1,1,0,0,-5]];perimeter=orthogonalPerimeter;outlineConnect=0;targetShapes=umlLifeline;portConstraint=eastwest;newEdgeStyle={&quot;curved&quot;:0,&quot;rounded&quot;:0};fillColor=#fff2cc;strokeColor=#d6b656;" vertex="1" parent="1">
          <mxGeometry x="275" y="360" width="10" height="80" as="geometry" />
        </mxCell>
        <mxCell id="xOHj4i3F1uHMTufk2OcQ-46" value="" style="endArrow=classic;html=1;rounded=0;" edge="1" parent="1" source="xOHj4i3F1uHMTufk2OcQ-28" target="xOHj4i3F1uHMTufk2OcQ-44">
          <mxGeometry width="50" height="50" relative="1" as="geometry">
            <mxPoint x="240" y="590" as="sourcePoint" />
            <mxPoint x="290" y="540" as="targetPoint" />
            <Array as="points">
              <mxPoint x="200" y="360" />
            </Array>
          </mxGeometry>
        </mxCell>
        <mxCell id="xOHj4i3F1uHMTufk2OcQ-47" value="Показать накладную" style="edgeLabel;html=1;align=center;verticalAlign=middle;resizable=0;points=[];" connectable="0" vertex="1" parent="xOHj4i3F1uHMTufk2OcQ-46">
          <mxGeometry x="0.3" relative="1" as="geometry">
            <mxPoint x="-23" y="-10" as="offset" />
          </mxGeometry>
        </mxCell>
        <mxCell id="xOHj4i3F1uHMTufk2OcQ-48" value="" style="endArrow=classic;html=1;rounded=0;" edge="1" parent="1" source="xOHj4i3F1uHMTufk2OcQ-44" target="xOHj4i3F1uHMTufk2OcQ-59">
          <mxGeometry width="50" height="50" relative="1" as="geometry">
            <mxPoint x="240" y="590" as="sourcePoint" />
            <mxPoint x="409" y="360" as="targetPoint" />
            <Array as="points">
              <mxPoint x="350" y="360" />
            </Array>
          </mxGeometry>
        </mxCell>
        <mxCell id="xOHj4i3F1uHMTufk2OcQ-49" value="Проверка накладной" style="edgeLabel;html=1;align=center;verticalAlign=middle;resizable=0;points=[];" connectable="0" vertex="1" parent="xOHj4i3F1uHMTufk2OcQ-48">
          <mxGeometry x="0.4355" relative="1" as="geometry">
            <mxPoint x="-163" y="-10" as="offset" />
          </mxGeometry>
        </mxCell>
        <mxCell id="xOHj4i3F1uHMTufk2OcQ-54" value="" style="shape=umlLifeline;perimeter=lifelinePerimeter;whiteSpace=wrap;html=1;container=1;dropTarget=0;collapsible=0;recursiveResize=0;outlineConnect=0;portConstraint=eastwest;newEdgeStyle={&quot;curved&quot;:0,&quot;rounded&quot;:0};participant=umlActor;" vertex="1" parent="1">
          <mxGeometry x="640" y="220" width="20" height="420" as="geometry" />
        </mxCell>
        <mxCell id="xOHj4i3F1uHMTufk2OcQ-59" value="" style="html=1;points=[[0,0,0,0,5],[0,1,0,0,-5],[1,0,0,0,5],[1,1,0,0,-5]];perimeter=orthogonalPerimeter;outlineConnect=0;targetShapes=umlLifeline;portConstraint=eastwest;newEdgeStyle={&quot;curved&quot;:0,&quot;rounded&quot;:0};fillColor=#d5e8d4;strokeColor=#82b366;" vertex="1" parent="xOHj4i3F1uHMTufk2OcQ-54">
          <mxGeometry x="5" y="90" width="10" height="210" as="geometry" />
        </mxCell>
        <mxCell id="xOHj4i3F1uHMTufk2OcQ-55" value="Заказ" style="rounded=1;whiteSpace=wrap;html=1;" vertex="1" parent="1">
          <mxGeometry x="430" y="220" width="120" height="40" as="geometry" />
        </mxCell>
        <mxCell id="xOHj4i3F1uHMTufk2OcQ-56" value="" style="endArrow=none;dashed=1;html=1;rounded=0;entryX=0.5;entryY=1;entryDx=0;entryDy=0;" edge="1" parent="1" source="xOHj4i3F1uHMTufk2OcQ-57" target="xOHj4i3F1uHMTufk2OcQ-55">
          <mxGeometry width="50" height="50" relative="1" as="geometry">
            <mxPoint x="490" y="640" as="sourcePoint" />
            <mxPoint x="390" y="540" as="targetPoint" />
          </mxGeometry>
        </mxCell>
        <mxCell id="xOHj4i3F1uHMTufk2OcQ-58" value="" style="endArrow=none;dashed=1;html=1;rounded=0;entryX=0.5;entryY=1;entryDx=0;entryDy=0;" edge="1" parent="1" source="xOHj4i3F1uHMTufk2OcQ-13" target="xOHj4i3F1uHMTufk2OcQ-57">
          <mxGeometry width="50" height="50" relative="1" as="geometry">
            <mxPoint x="490" y="640" as="sourcePoint" />
            <mxPoint x="490" y="260" as="targetPoint" />
          </mxGeometry>
        </mxCell>
        <mxCell id="xOHj4i3F1uHMTufk2OcQ-57" value="" style="html=1;points=[[0,0,0,0,5],[0,1,0,0,-5],[1,0,0,0,5],[1,1,0,0,-5]];perimeter=orthogonalPerimeter;outlineConnect=0;targetShapes=umlLifeline;portConstraint=eastwest;newEdgeStyle={&quot;curved&quot;:0,&quot;rounded&quot;:0};fillColor=#fff2cc;strokeColor=#d6b656;" vertex="1" parent="1">
          <mxGeometry x="485" y="420" width="10" height="100" as="geometry" />
        </mxCell>
        <mxCell id="xOHj4i3F1uHMTufk2OcQ-60" value="Выдача заказа" style="endArrow=open;endSize=12;dashed=1;html=1;rounded=0;" edge="1" parent="1" source="xOHj4i3F1uHMTufk2OcQ-59" target="xOHj4i3F1uHMTufk2OcQ-57">
          <mxGeometry y="-15" width="160" relative="1" as="geometry">
            <mxPoint x="280" y="570" as="sourcePoint" />
            <mxPoint x="440" y="570" as="targetPoint" />
            <mxPoint as="offset" />
            <Array as="points">
              <mxPoint x="570" y="520" />
            </Array>
          </mxGeometry>
        </mxCell>
      </root>
    </mxGraphModel>
  </diagram>
</mxfile>
